<?xml version="1.0" encoding="UTF-8"?>
<svg id="Layer_1" data-name="Layer 1" xmlns="http://www.w3.org/2000/svg" viewBox="0 0 823.89 263.24">
  <defs>
    <style>
      .cls-1 {
        fill: #fff;
      }
    </style>
  </defs>
  <path class="cls-1" d="M687.72,16.37c10.55-1.21,20.59-2.23,30.6-3.58,3.74-.5,5.75.63,7.39,4.07,17.1,35.79,34.35,71.51,51.58,107.24.91,1.89,2.01,3.69,3.02,5.53.49-.15.98-.3,1.47-.45V5.92c14.22-2,27.82-3.91,42.1-5.92v263.24c-10.35-2.12-20.76-4.08-31.05-6.54-1.64-.39-3.17-2.83-4.02-4.66-17.33-37.06-34.56-74.17-51.82-111.27-2.17-4.66-4.42-9.29-7.8-13.7v119.75c-14.17-2.11-27.58-4.11-41.49-6.18V16.37Z"/>
  <path class="cls-1" d="M.06,129.91C.06,96.73,0,63.55.09,30.37.12,13.76,7.9,3.65,24.23,1.17c7.15-1.09,14.81.64,22.17,1.61,17.95,2.37,35.83,5.31,53.81,7.51,18.62,2.28,30.6,14.36,30.68,33.09.22,55.86.08,111.73.05,167.59,0,15.16-11.03,32.34-31.57,34.89-19.73,2.44-39.19,7.07-58.82,10.43-5.85,1-12.02,2-17.79,1.19C8.6,255.48.05,244.68.03,230.02c-.05-33.37-.02-66.74-.02-100.11h.05ZM42.8,129.78h-.03c0,25.29,0,50.58,0,75.88,0,3.35-.1,6.86,4.82,6.1,11.61-1.79,23.21-3.63,34.78-5.66,3.82-.67,5.38-3.25,5.38-7.28-.08-47.21-.07-94.42.02-141.63,0-3.97-1.51-5.76-5.37-6.31-10.14-1.45-20.24-3.23-30.39-4.63-6.93-.95-9.19,1.21-9.2,8.22-.02,25.1,0,50.21,0,75.31Z"/>
  <path class="cls-1" d="M270.22,146.27c15.18,25.45,30.17,50.58,45.55,76.36-13.75.96-26.6,1.37-39.31,2.95-6.54.81-9.36-1.6-12.28-6.92-11.61-21.15-23.76-42-35.54-63.06-1.5-2.68-3.12-3.75-6.13-3.44-5.95.62-11.93,1-18.52,1.53v78.43c-14.49,1.79-28.46,3.51-42.78,5.28V17.16c5.55.41,11.04.75,16.51,1.23,25.16,2.24,50.32,4.5,75.48,6.79,7.08.65,14.15,1.33,21.2,2.2,15.38,1.89,26.11,13.68,26.44,29.99.38,19.11.38,38.24-.06,57.34-.42,18.43-11.7,30-30.55,31.55ZM204.19,113.61c14.79-.72,29.14-1.13,43.44-2.26,6.92-.54,10.08-4.42,10.36-11.6.3-7.65.18-15.33-.11-22.98-.27-7.06-4.06-10.61-11.26-11.17-4.47-.35-8.94-.68-13.42-.95-9.62-.59-19.25-1.15-29.01-1.73v50.69Z"/>
  <path class="cls-1" d="M607.43,21.65c18.47,72.04,36.83,143.64,55.41,216.09-11.31-1.44-21.24-2.69-31.17-3.96-.18-.02-.36-.1-.55-.13-4.49-.84-10.37-.25-13.09-2.9-2.84-2.76-2.66-8.64-3.77-13.17-1.47-5.97-3.26-11.9-4.23-17.95-.6-3.75-2.1-4.99-5.73-5.14-16.45-.7-32.88-1.62-49.91-2.48-2.59,10.28-5,20.41-7.82,30.43-.44,1.57-2.82,3.82-4.15,3.72-13.79-1.02-27.55-2.45-42.05-3.84,2.03-7.41,3.99-14.69,6.02-21.94,15.67-56.15,31.4-112.29,46.95-168.47,1.07-3.85,2.23-5.88,6.75-6.19,15.48-1.03,30.92-2.61,47.35-4.07ZM581.78,75.69c-.37.02-.74.04-1.11.05-5.59,26.46-11.18,52.93-16.93,80.15h35.17c-5.74-26.86-11.44-53.53-17.13-80.21Z"/>
  <path class="cls-1" d="M485.24,31.02v39.22h-55.26v149.75h-42.83V70.42h-55.78V31.02h153.86Z"/>
</svg>